<svg xmlns="http://www.w3.org/2000/svg" viewBox="0 0 144.06 104.03"><defs><style>.cls-1,.cls-2{fill:#470d46;}.cls-2{font-size:12px;font-family:SegoeUIHistoric, Segoe UI Historic;letter-spacing:0.25em;}.cls-3{letter-spacing:0.26em;}</style></defs><g id="Layer_2" data-name="Layer 2"><g id="Layer_1-2" data-name="Layer 1"><path class="cls-1" d="M76.8,0a19.79,19.79,0,0,1,4.62.6c1.13.28,2.26.58,3.37.93A3.21,3.21,0,0,1,87,4.89a11.38,11.38,0,0,0,4.11,8.72c2.14,1.85,4.61,1.82,7.15,1.79,3.29,0,3.54.09,3.27,3.38-1,12-5.84,22.21-15.55,29.54-6.66,5-13.27,4.84-19.67-.55A40.35,40.35,0,0,1,51.59,18c-.11-2,.62-2.6,2.62-2.59,8,.06,11.11-2.93,12.08-10.91a3.72,3.72,0,0,1,1-2,3.83,3.83,0,0,1,1.91-1.09A28.4,28.4,0,0,1,74.42.14,19.34,19.34,0,0,1,76.8,0ZM53.46,17.41a21.43,21.43,0,0,0,0,2.28A39.37,39.37,0,0,0,67,46c6.08,5.28,13,5.28,19.09.08,7.52-6.39,11.68-14.75,13.44-24.36a25.39,25.39,0,0,0,0-4.37L92.78,17a19.8,19.8,0,0,1-7,12.74C83.06,32,80.26,34.14,78.06,37c-1.11,1.44-2.18.88-3.24-.19-1.82-1.86-3.21-4-5.52-5.54C64.22,28,61.4,23,60.3,17ZM67.89,6.73a15.52,15.52,0,0,1-5.26,8.88,2.44,2.44,0,0,0-.35,2,18.93,18.93,0,0,0,9.26,13c.53.3,1.4,0,2.11,0,1.83-.06,3.8-.57,5.45-.05a3.39,3.39,0,0,0,3.32-.3,20.19,20.19,0,0,0,8.34-12c.21-.77.29-2.08-.15-2.44a16.19,16.19,0,0,1-5.41-9C78.27,8.73,75.39,8.73,67.89,6.73ZM68.15,4C71.52,7.4,82.76,7.24,84.87,3.9,81.6.92,71.59.94,68.15,4Zm8.43,32.44,2.29-3.9c-1.21-.22-2.41-.49-3.62-.61-.31,0-1,.58-.94.62C74.9,33.69,75.56,34.76,76.58,36.47Z" transform="translate(-1.35)"/><path class="cls-1" d="M70.34,15.2v-.54h2v.74h-.15ZM72.53,23l1.9.2v.54H70.34v-.54l1.9-.2Zm-.8-4.11c0-1.39,0-2.79,0-4.18h1.4c0,1.4,0,2.72,0,4.31v.41c0,1.52,0,2.92,0,4.31h-1.4c0-1.36,0-2.76,0-4.18Zm.66.06h1.82c1.58,0,2.34-.78,2.34-1.87s-.66-1.75-2.18-1.75h-2v-.62h2c2.23,0,3.55.87,3.55,2.37,0,1.15-1,2.18-2.9,2.33l0-.1A2.16,2.16,0,0,1,77.18,21l.71,2.24L77.44,23l1.5.16v.54a3.6,3.6,0,0,1-1,.14c-.9,0-1.3-.22-1.47-.84l-.6-2.2c-.29-1.09-.83-1.28-2-1.28H72.39Z" transform="translate(-1.35)"/><path class="cls-1" d="M80.81,20.23c0-.75,0-1.16,0-1.7l-1.17-.12v-.48l2.15-.81.22.14,0,1.82V22.3c0,2.24-.09,3.24-.86,4a2.3,2.3,0,0,1-1.81.76c-.88,0-1.27-.42-1.27-.77a.82.82,0,0,1,.85-.53,2,2,0,0,1,1.08.39l.65.43-1.88.23V26.3a1.24,1.24,0,0,0,.85.31.89.89,0,0,0,1-.58,12,12,0,0,0,.32-3.73Zm-.39-5.48a.88.88,0,0,1,1-.85.86.86,0,1,1-1,.85Z" transform="translate(-1.35)"/><path class="cls-1" d="M1.35,58.63v-1.2h4.2v1.65h-.3Zm4.5,17.25,3.9.45v1.2H1.35v-1.2l3.9-.45ZM4.2,66.73c0-3.09,0-6.21-.09-9.3H7C6.9,60.55,6.9,63.49,6.9,67v.9c0,3.39,0,6.51.09,9.6H4.11c.09-3,.09-6.15.09-9.3Zm1.35.15H9.3c3.24,0,4.8-1.74,4.8-4.17s-1.35-3.9-4.47-3.9H5.55V57.43H9.66c4.59,0,7.29,2,7.29,5.28,0,2.55-2,4.86-5.94,5.19l.09-.24c2.16.21,3.48,1.2,4.29,3.9l1.47,5L15.93,76l3.09.36v1.2a6.91,6.91,0,0,1-2.16.3c-1.86,0-2.67-.48-3-1.86L12.6,71.08c-.6-2.43-1.71-2.85-4.2-2.85H5.55Z" transform="translate(-1.35)"/><path class="cls-1" d="M55.2,83.68v1H47.52v-1l3.39-.6h.6ZM50,69.82c0-1.65,0-2.58-.09-3.78l-2.4-.27v-1l4.08-1.8.45.3.24,2.55.12.06v9.36l-.09.18v3c0,2.1,0,4.26.09,6.36H50q.09-3.15.09-6.3Zm6.12-5.25c-1.11,0-2.61.54-4.8,2.67l-.27-.54c1.74-2.64,3.69-3.78,5.73-3.78,3.18,0,5.7,2.82,5.7,7.44s-2.64,7.56-6.15,7.56c-1.83,0-3.69-.84-5.28-4l.27-.48c1.56,2,3,2.79,4.47,2.79,2.28,0,4.14-1.77,4.14-5.64S58.38,64.57,56.16,64.57Z" transform="translate(-1.35)"/><path class="cls-1" d="M68.94,55.33l.42.24-.12,4.26v11.4q0,3.15.09,6.3H66.75q.09-3.15.09-6.3V58l-2.49-.3v-1Zm2.79,21.15v1H64.35v-1l3.39-.6h.6Zm6.12-13.17L68,73.39V71.65l8-8.34ZM76.62,75.88l3.3.6v1H76l-5-8,1.68-1.74,5.91,9.24ZM74.91,65.14l-2.73-.69V63.31h7v1.14L75.81,65Z" transform="translate(-1.35)"/><path class="cls-1" d="M86.22,69.67a32.73,32.73,0,0,1,4.65-1.26v1.08a27.19,27.19,0,0,0-4,1.2c-2.7,1-3,2.19-3,3.06,0,1.59,1.05,2.22,2.43,2.22,1,0,1.65-.39,3.54-1.74l.6-.45.42.63-.87.87c-1.8,1.8-2.82,2.64-4.65,2.64-2.19,0-4-1.26-4-3.75C81.3,72.49,82.2,71.14,86.22,69.67Zm3.45,5.1V67.93c0-2.94-.84-3.66-2.82-3.66a7,7,0,0,0-2.7.54l1.2-.93-.78,2.58c-.27.87-.72,1.35-1.53,1.35a1.23,1.23,0,0,1-1.35-1.2c.57-2.28,2.79-3.69,5.79-3.69s4.59,1.41,4.59,5.19v6.36c0,1.35.42,1.83,1.11,1.83a1.48,1.48,0,0,0,1.17-.66l.6.66a2.8,2.8,0,0,1-2.55,1.53C90.75,77.83,89.67,76.63,89.67,74.77Z" transform="translate(-1.35)"/><path class="cls-1" d="M98.46,77.53c.06-1.35.09-4.44.09-6.3V69.82c0-1.65,0-2.58-.09-3.78l-2.4-.27v-1l4.08-1.8.45.3L101,66.7v4.53c0,1.86,0,5,.09,6.3Zm4.68-1v1h-6.9v-1l3.3-.6h.6Zm6.81-8v2.76c0,1.92,0,5,.09,6.3h-2.58c.06-1.35.09-4.38.09-6.3V68.71c0-2.79-.72-3.69-2.52-3.69-1.47,0-2.64.6-4.32,2.07h-.63V65.74h1.53l-1.29.54a8,8,0,0,1,5.82-3.36C108.72,62.92,110,64.51,110,68.47Zm-.81,7.41,3,.6v1h-6.9v-1l3.3-.6ZM119,68.14v3.09c0,1.92,0,5,.09,6.3h-2.58c.06-1.35.09-4.38.09-6.3V68.65c0-2.82-.78-3.63-2.55-3.63-1.35,0-2.61.54-4.29,2.07H109V66h1.62l-1.38.24a7.35,7.35,0,0,1,5.91-3.36C117.54,62.92,119,64.42,119,68.14Zm-.81,7.74,3,.6v1h-6.9v-1l3.3-.6Z" transform="translate(-1.35)"/><path class="cls-1" d="M128.34,69.67A32.73,32.73,0,0,1,133,68.41v1.08a27.19,27.19,0,0,0-4,1.2c-2.7,1-3,2.19-3,3.06,0,1.59,1,2.22,2.43,2.22,1,0,1.65-.39,3.54-1.74l.6-.45.42.63-.87.87c-1.8,1.8-2.82,2.64-4.65,2.64-2.19,0-4-1.26-4-3.75C123.42,72.49,124.32,71.14,128.34,69.67Zm3.45,5.1V67.93c0-2.94-.84-3.66-2.82-3.66a7,7,0,0,0-2.7.54l1.2-.93-.78,2.58c-.27.87-.72,1.35-1.53,1.35a1.23,1.23,0,0,1-1.35-1.2c.57-2.28,2.79-3.69,5.79-3.69s4.59,1.41,4.59,5.19v6.36c0,1.35.42,1.83,1.11,1.83a1.48,1.48,0,0,0,1.17-.66l.6.66a2.8,2.8,0,0,1-2.55,1.53C132.87,77.83,131.79,76.63,131.79,74.77Z" transform="translate(-1.35)"/><path class="cls-1" d="M142.62,55.33l.42.24-.12,4.26v11.4q0,3.15.09,6.3h-2.58q.09-3.15.09-6.3V58l-2.49-.3v-1Zm2.79,21.15v1H138v-1l3.39-.6h.6Z" transform="translate(-1.35)"/><path class="cls-1" d="M26,66.06l1.16,1.28a6.75,6.75,0,0,0-5,3.84,6.49,6.49,0,0,0-.38,4.49,6.67,6.67,0,0,0,13.07-1c.46-3.25-1.54-5.93-5.54-7.34l1.13-1.24c.53.37,1,.75,1.51,1a7.78,7.78,0,1,1-7.4,0A15.43,15.43,0,0,0,26,66.06Z" transform="translate(-1.35)"/><path class="cls-1" d="M23.62,62.6c.68,0,1.21,0,1.73,0a.49.49,0,0,1,.36.24c.66,1.34,1.29,2.7,1.83,4.12Z" transform="translate(-1.35)"/><path class="cls-1" d="M28.74,66.9c.64-1.35,1.27-2.71,1.93-4.05a.46.46,0,0,1,.36-.24c.52,0,1,0,1.73,0L28.85,67Z" transform="translate(-1.35)"/><path class="cls-1" d="M28.4,62.63h2l-1.94,4.09-.09,0Z" transform="translate(-1.35)"/><path class="cls-1" d="M28,66.88l-2-4.23h2Z" transform="translate(-1.35)"/><path class="cls-1" d="M25.93,62.26l1-1.58,1,1.58Z" transform="translate(-1.35)"/><path class="cls-1" d="M29.42,60.67l1,1.57h-2Z" transform="translate(-1.35)"/><path class="cls-1" d="M23.63,62.26l1-1.69.79,1.69Z" transform="translate(-1.35)"/><path class="cls-1" d="M32.76,62.28H31l.79-1.72Z" transform="translate(-1.35)"/><path class="cls-1" d="M27.26,60.58h1.86l-.93,1.5Z" transform="translate(-1.35)"/><path class="cls-1" d="M29.72,60.59H31.4l-.71,1.48Z" transform="translate(-1.35)"/><path class="cls-1" d="M25,60.59h1.65l-1,1.48Z" transform="translate(-1.35)"/><path class="cls-1" d="M22.93,61.72l-.53.33.12.16L22,61.72l.54-.34Z" transform="translate(-1.35)"/><path class="cls-1" d="M33.92,62.16l-.42-.54.36-.39.52.49Z" transform="translate(-1.35)"/><path class="cls-1" d="M36.14,66.06l1.16,1.28a6.75,6.75,0,0,0-5,3.84,6.49,6.49,0,0,0-.38,4.49,6.67,6.67,0,0,0,13.07-1c.46-3.25-1.54-5.93-5.54-7.34l1.13-1.24c.53.37,1,.75,1.51,1a7.78,7.78,0,1,1-7.4,0A15.43,15.43,0,0,0,36.14,66.06Z" transform="translate(-1.35)"/><path class="cls-1" d="M33.79,62.6c.68,0,1.21,0,1.73,0a.49.49,0,0,1,.36.24c.66,1.34,1.29,2.7,1.83,4.12Z" transform="translate(-1.35)"/><path class="cls-1" d="M38.91,66.9c.64-1.35,1.27-2.71,1.93-4.05a.46.46,0,0,1,.36-.24c.52,0,1,0,1.73,0L39,67Z" transform="translate(-1.35)"/><path class="cls-1" d="M38.57,62.63h2l-1.94,4.09-.09,0Z" transform="translate(-1.35)"/><path class="cls-1" d="M38.14,66.88l-2-4.23h2Z" transform="translate(-1.35)"/><path class="cls-1" d="M36.1,62.26l1-1.58,1,1.58Z" transform="translate(-1.35)"/><path class="cls-1" d="M39.59,60.67l1,1.57h-2Z" transform="translate(-1.35)"/><path class="cls-1" d="M33.8,62.26l1-1.69.79,1.69Z" transform="translate(-1.35)"/><path class="cls-1" d="M42.93,62.28H41.12l.79-1.72Z" transform="translate(-1.35)"/><path class="cls-1" d="M37.43,60.58h1.86l-.93,1.5Z" transform="translate(-1.35)"/><path class="cls-1" d="M39.89,60.59h1.68l-.71,1.48Z" transform="translate(-1.35)"/><path class="cls-1" d="M35.17,60.59h1.65l-1,1.48Z" transform="translate(-1.35)"/><path class="cls-1" d="M33.09,61.71l-.47.43-.45-.41.45-.41Z" transform="translate(-1.35)"/><path class="cls-1" d="M44.09,62.16l-.42-.54.36-.39.52.49Z" transform="translate(-1.35)"/><text class="cls-2" transform="translate(32.38 95.75)">J<tspan class="cls-3" x="7.28" y="0">E</tspan><tspan x="16.52" y="0">WELLERS</tspan></text></g></g></svg>