<svg xmlns="http://www.w3.org/2000/svg" viewBox="0 0 114.77 119.2"><defs><style>.cls-1{fill:#470d46;}</style></defs><g id="Layer_2" data-name="Layer 2"><g id="Layer_1-2" data-name="Layer 1"><path class="cls-1" d="M57.87,0A44.9,44.9,0,0,1,68.48,1.38C71.07,2,73.65,2.7,76.19,3.5c3.37,1.06,5,3.82,5,7.71a26.21,26.21,0,0,0,9.44,20c4.9,4.23,10.57,4.17,16.4,4.11,7.55-.09,8.13.19,7.5,7.74-2.3,27.59-13.39,51-35.67,67.78C63.64,122.39,48.47,122,33.78,109.6,12.79,91.9,1.51,68.86,0,41.21c-.24-4.58,1.44-6,6-6,18.33.14,25.48-6.73,27.7-25a8.73,8.73,0,0,1,6.66-7.09,65.16,65.16,0,0,1,12-2.81A42.2,42.2,0,0,1,57.87,0ZM4.33,39.94a50.35,50.35,0,0,0,0,5.24c2.62,24.09,12.7,44.51,31,60.42,13.95,12.13,29.74,12.12,43.79.18C96.4,91.13,105.94,71.94,110,49.9c.57-3.16.07-6.51.07-10L94.53,39c-1.77,11.88-7.06,21.8-16,29.21C72.24,73.4,65.8,78.32,60.76,84.85c-2.55,3.32-5,2-7.42-.43C49.16,80.16,46,75.17,40.65,71.71,29,64.14,22.54,52.71,20,38.89Zm33.1-24.51c-2,8.27-5.61,15.12-12.06,20.37-.92.76-1.12,3.13-.8,4.56,2.85,12.88,9.66,23.07,21.23,29.7,1.21.69,3.21,0,4.85,0,4.2-.15,8.72-1.31,12.51-.12,3.11,1,5.22,1,7.61-.68A46.46,46.46,0,0,0,89.91,41.76c.46-1.78.65-4.77-.36-5.61a37.14,37.14,0,0,1-12.4-20.74C61.25,20,54.64,20,37.43,15.43ZM38,9.25C45.76,17,71.55,16.6,76.38,9,68.89,2.12,45.91,2.16,38,9.25ZM57.37,83.68c2.32-4,3.79-6.46,5.25-9-2.77-.5-5.52-1.12-8.31-1.4-.7-.07-2.21,1.33-2.16,1.43C53.51,77.29,55,79.76,57.37,83.68Z"/><path class="cls-1" d="M44.08,33.33V32.09h4.69v1.7h-.33Zm5,17.79,4.35.47v1.24H44.08V51.59l4.36-.47Zm-1.85-9.43c0-3.19,0-6.41-.1-9.6h3.22c-.1,3.22-.1,6.25-.1,9.9v.93c0,3.5,0,6.72.1,9.91H47.16c.1-3.13.1-6.35.1-9.6Zm1.51.15H53c3.62,0,5.36-1.79,5.36-4.3s-1.51-4-5-4H48.77V32.09h4.59c5.13,0,8.14,2,8.14,5.45,0,2.63-2.24,5-6.63,5.35l.1-.25c2.41.22,3.89,1.24,4.79,4L61.4,51.8l-1-.58,3.45.37v1.24a8.63,8.63,0,0,1-2.42.3c-2.07,0-3-.49-3.38-1.91l-1.37-5c-.67-2.5-1.91-2.94-4.7-2.94H48.77Z"/><path class="cls-1" d="M68.1,44.87c0-1.7,0-2.66-.1-3.9l-2.68-.27V39.61l4.92-1.85.51.3-.1,4.18v7.4c0,5.14-.2,7.42-2,9.19a5.3,5.3,0,0,1-4.15,1.73c-2,0-2.92-1-2.92-1.76a1.87,1.87,0,0,1,1.94-1.21,4.35,4.35,0,0,1,2.48.9l1.51,1L63.21,60V58.8a2.82,2.82,0,0,0,1.94.71,2.06,2.06,0,0,0,2.21-1.33c.54-1.3.74-3.78.74-8.54Zm-.9-12.56a2.23,2.23,0,0,1,4.42,0,2.23,2.23,0,0,1-4.42,0Z"/></g></g></svg>