<svg xmlns="http://www.w3.org/2000/svg" viewBox="0 0 144.06 48.69" width="144.06" height="48.69"><metadata><rdf:RDF xmlns:rdf="http://www.w3.org/1999/02/22-rdf-syntax-ns#" xmlns:dc="http://purl.org/dc/elements/1.1/"><rdf:Description><dc:creator>RealFaviconGenerator</dc:creator><dc:source>https://realfavicongenerator.net</dc:source></rdf:Description></rdf:RDF></metadata><defs><style>.cls-1,.cls-2{fill:#470d46;}.cls-2{font-size:12px;font-family:SegoeUIHistoric, Segoe UI Historic;letter-spacing:0.25em;}.cls-3{letter-spacing:0.26em;}</style></defs><g id="Layer_2" data-name="Layer 2"><g id="Layer_1-2" data-name="Layer 1"><path class="cls-1" d="M1.35,6.15V5h4.2V6.6h-.3ZM5.85,23.4l3.9.45v1.2H1.35v-1.2l3.9-.45ZM4.2,14.25c0-3.09,0-6.21-.09-9.3H7C6.9,8.07,6.9,11,6.9,14.55v.9c0,3.39,0,6.51.09,9.6H4.11c.09-3,.09-6.15.09-9.3Zm1.35.15H9.3c3.24,0,4.8-1.74,4.8-4.17s-1.35-3.9-4.47-3.9H5.55V5H9.66C14.25,5,17,6.9,17,10.23c0,2.55-2,4.86-5.94,5.19l.09-.24c2.16.21,3.48,1.2,4.29,3.9l1.47,5-.93-.57,3.09.36v1.2a6.91,6.91,0,0,1-2.16.3c-1.86,0-2.67-.48-3-1.86L12.6,18.6c-.6-2.43-1.71-2.85-4.2-2.85H5.55Z" transform="translate(-1.35 -2.85)"></path><path class="cls-1" d="M55.2,31.2v1.05H47.52V31.2l3.39-.6h.6ZM50,17.34c0-1.65,0-2.58-.09-3.78l-2.4-.27v-1l4.08-1.8.45.3.24,2.55.12.06v9.36l-.09.18v3c0,2.1,0,4.26.09,6.36H50Q50,29.1,50,26Zm6.12-5.25c-1.11,0-2.61.54-4.8,2.67l-.27-.54c1.74-2.64,3.69-3.78,5.73-3.78,3.18,0,5.7,2.82,5.7,7.44s-2.64,7.56-6.15,7.56c-1.83,0-3.69-.84-5.28-4l.27-.48c1.56,2,3,2.79,4.47,2.79C58.11,23.79,60,22,60,18.15S58.38,12.09,56.16,12.09Z" transform="translate(-1.35 -2.85)"></path><path class="cls-1" d="M68.94,2.85l.42.24-.12,4.26v11.4q0,3.15.09,6.3H66.75q.09-3.15.09-6.3V5.55l-2.49-.3v-1ZM71.73,24v1.05H64.35V24l3.39-.6h.6Zm6.12-13.17L68,20.91V19.17l8-8.34ZM76.62,23.4l3.3.6v1.05H76l-5-8,1.68-1.74,5.91,9.24ZM74.91,12.66,72.18,12V10.83h7V12l-3.33.51Z" transform="translate(-1.35 -2.85)"></path><path class="cls-1" d="M86.22,17.19a32.73,32.73,0,0,1,4.65-1.26V17a27.19,27.19,0,0,0-4,1.2c-2.7,1.05-3,2.19-3,3.06,0,1.59,1.05,2.22,2.43,2.22,1,0,1.65-.39,3.54-1.74l.6-.45.42.63L90,22.8c-1.8,1.8-2.82,2.64-4.65,2.64-2.19,0-4-1.26-4-3.75C81.3,20,82.2,18.66,86.22,17.19Zm3.45,5.1V15.45c0-2.94-.84-3.66-2.82-3.66a7,7,0,0,0-2.7.54l1.2-.93L84.57,14c-.27.87-.72,1.35-1.53,1.35a1.23,1.23,0,0,1-1.35-1.2c.57-2.28,2.79-3.69,5.79-3.69s4.59,1.41,4.59,5.19V22c0,1.35.42,1.83,1.11,1.83a1.48,1.48,0,0,0,1.17-.66l.6.66a2.8,2.8,0,0,1-2.55,1.53C90.75,25.35,89.67,24.15,89.67,22.29Z" transform="translate(-1.35 -2.85)"></path><path class="cls-1" d="M98.46,25.05c.06-1.35.09-4.44.09-6.3V17.34c0-1.65,0-2.58-.09-3.78l-2.4-.27v-1l4.08-1.8.45.3.36,3.48v4.53c0,1.86,0,4.95.09,6.3ZM103.14,24v1.05h-6.9V24l3.3-.6h.6ZM110,16v2.76c0,1.92,0,4.95.09,6.3h-2.58c.06-1.35.09-4.38.09-6.3V16.23c0-2.79-.72-3.69-2.52-3.69-1.47,0-2.64.6-4.32,2.07h-.63V13.26h1.53l-1.29.54a8,8,0,0,1,5.82-3.36C108.72,10.44,110,12,110,16Zm-.81,7.41,3,.6v1.05h-6.9V24l3.3-.6ZM119,15.66v3.09c0,1.92,0,4.95.09,6.3h-2.58c.06-1.35.09-4.38.09-6.3V16.17c0-2.82-.78-3.63-2.55-3.63-1.35,0-2.61.54-4.29,2.07H109v-1h1.62l-1.38.24a7.35,7.35,0,0,1,5.91-3.36C117.54,10.44,119,11.94,119,15.66Zm-.81,7.74,3,.6v1.05h-6.9V24l3.3-.6Z" transform="translate(-1.35 -2.85)"></path><path class="cls-1" d="M128.34,17.19A32.73,32.73,0,0,1,133,15.93V17a27.19,27.19,0,0,0-4,1.2c-2.7,1.05-3,2.19-3,3.06,0,1.59,1,2.22,2.43,2.22,1,0,1.65-.39,3.54-1.74l.6-.45.42.63-.87.87c-1.8,1.8-2.82,2.64-4.65,2.64-2.19,0-4-1.26-4-3.75C123.42,20,124.32,18.66,128.34,17.19Zm3.45,5.1V15.45c0-2.94-.84-3.66-2.82-3.66a7,7,0,0,0-2.7.54l1.2-.93L126.69,14c-.27.87-.72,1.35-1.53,1.35a1.23,1.23,0,0,1-1.35-1.2c.57-2.28,2.79-3.69,5.79-3.69s4.59,1.41,4.59,5.19V22c0,1.35.42,1.83,1.11,1.83a1.48,1.48,0,0,0,1.17-.66l.6.66a2.8,2.8,0,0,1-2.55,1.53C132.87,25.35,131.79,24.15,131.79,22.29Z" transform="translate(-1.35 -2.85)"></path><path class="cls-1" d="M142.62,2.85l.42.24-.12,4.26v11.4q0,3.15.09,6.3h-2.58q.09-3.15.09-6.3V5.55L138,5.25v-1ZM145.41,24v1.05H138V24l3.39-.6h.6Z" transform="translate(-1.35 -2.85)"></path><path class="cls-1" d="M26,13.58l1.16,1.27a6.76,6.76,0,0,0-5,3.85,6.47,6.47,0,0,0-.38,4.48,6.67,6.67,0,0,0,13.07-1c.46-3.25-1.54-5.92-5.54-7.33l1.13-1.24c.53.37,1,.75,1.51,1a7.79,7.79,0,1,1-7.4,0A17.57,17.57,0,0,0,26,13.58Z" transform="translate(-1.35 -2.85)"></path><path class="cls-1" d="M23.62,10.11c.68,0,1.21,0,1.73,0a.54.54,0,0,1,.36.25c.66,1.34,1.29,2.7,1.83,4.12Z" transform="translate(-1.35 -2.85)"></path><path class="cls-1" d="M28.74,14.42c.64-1.35,1.27-2.71,1.93-4.05a.5.5,0,0,1,.36-.25c.52,0,1,0,1.73,0l-3.91,4.37Z" transform="translate(-1.35 -2.85)"></path><path class="cls-1" d="M28.4,10.14h2l-1.94,4.1-.09,0Z" transform="translate(-1.35 -2.85)"></path><path class="cls-1" d="M28,14.4l-2-4.23h2Z" transform="translate(-1.35 -2.85)"></path><path class="cls-1" d="M25.93,9.78l1-1.59,1,1.59Z" transform="translate(-1.35 -2.85)"></path><path class="cls-1" d="M29.42,8.19l1,1.57h-2Z" transform="translate(-1.35 -2.85)"></path><path class="cls-1" d="M23.63,9.78l1-1.69.79,1.69Z" transform="translate(-1.35 -2.85)"></path><path class="cls-1" d="M32.76,9.79H31l.79-1.72Z" transform="translate(-1.35 -2.85)"></path><path class="cls-1" d="M27.26,8.1h1.86l-.93,1.5Z" transform="translate(-1.35 -2.85)"></path><path class="cls-1" d="M29.72,8.1H31.4l-.71,1.49Z" transform="translate(-1.35 -2.85)"></path><path class="cls-1" d="M25,8.11h1.65l-1,1.48Z" transform="translate(-1.35 -2.85)"></path><path class="cls-1" d="M22.93,9.23l-.53.34.12.16L22,9.24l.54-.34Z" transform="translate(-1.35 -2.85)"></path><path class="cls-1" d="M33.92,9.68l-.42-.54.36-.39.52.49Z" transform="translate(-1.35 -2.85)"></path><path class="cls-1" d="M36.14,13.58l1.16,1.27a6.76,6.76,0,0,0-5,3.85,6.47,6.47,0,0,0-.38,4.48,6.67,6.67,0,0,0,13.07-1c.46-3.25-1.54-5.92-5.54-7.33l1.13-1.24c.53.37,1,.75,1.51,1a7.79,7.79,0,1,1-7.4,0A17.57,17.57,0,0,0,36.14,13.58Z" transform="translate(-1.35 -2.85)"></path><path class="cls-1" d="M33.79,10.11c.68,0,1.21,0,1.73,0a.54.54,0,0,1,.36.25c.66,1.34,1.29,2.7,1.83,4.12Z" transform="translate(-1.35 -2.85)"></path><path class="cls-1" d="M38.91,14.42c.64-1.35,1.27-2.71,1.93-4.05a.5.5,0,0,1,.36-.25c.52,0,1,0,1.73,0L39,14.48Z" transform="translate(-1.35 -2.85)"></path><path class="cls-1" d="M38.57,10.14h2l-1.94,4.1-.09,0Z" transform="translate(-1.35 -2.85)"></path><path class="cls-1" d="M38.14,14.4l-2-4.23h2Z" transform="translate(-1.35 -2.85)"></path><path class="cls-1" d="M36.1,9.78l1-1.59,1,1.59Z" transform="translate(-1.35 -2.85)"></path><path class="cls-1" d="M39.59,8.19l1,1.57h-2Z" transform="translate(-1.35 -2.85)"></path><path class="cls-1" d="M33.8,9.78l1-1.69.79,1.69Z" transform="translate(-1.35 -2.85)"></path><path class="cls-1" d="M42.93,9.79H41.12l.79-1.72Z" transform="translate(-1.35 -2.85)"></path><path class="cls-1" d="M37.43,8.1h1.86l-.93,1.5Z" transform="translate(-1.35 -2.85)"></path><path class="cls-1" d="M39.89,8.1h1.68l-.71,1.49Z" transform="translate(-1.35 -2.85)"></path><path class="cls-1" d="M35.17,8.11h1.65l-1,1.48Z" transform="translate(-1.35 -2.85)"></path><path class="cls-1" d="M33.09,9.23l-.47.43-.45-.41.45-.41Z" transform="translate(-1.35 -2.85)"></path><path class="cls-1" d="M44.09,9.68l-.42-.54L44,8.75l.52.49Z" transform="translate(-1.35 -2.85)"></path><text class="cls-2" transform="translate(32.38 40.42)">J<tspan class="cls-3" x="7.28" y="0">E</tspan><tspan x="16.52" y="0">WELLERS</tspan></text></g></g></svg>